<?xml version="1.0" encoding="utf-8"?>
<!-- Generator: Adobe Illustrator 23.0.3, SVG Export Plug-In . SVG Version: 6.00 Build 0)  -->
<svg version="1.1" id="Capa_1" xmlns="http://www.w3.org/2000/svg" xmlns:xlink="http://www.w3.org/1999/xlink" x="0px" y="0px"
	 viewBox="0 0 334.3 76.9" style="enable-background:new 0 0 334.3 76.9;" xml:space="preserve">
<style type="text/css">
	.st0{fill:#96B734;}
	.st1{fill:none;stroke:#96B734;stroke-width:1.3884;}
	.st2{fill:#ABC465;}
	.st3{fill:none;stroke:#ABC465;stroke-width:1.3884;}
	.st4{fill:#C1D38A;}
	.st5{fill:none;stroke:#C1D38A;stroke-width:1.3884;}
	.st6{fill:#CCDB9D;}
	.st7{fill:none;stroke:#CCDB9D;stroke-width:1.3884;}
	.st8{clip-path:url(#SVGID_2_);}
	.st9{fill:none;stroke:#000000;stroke-width:2.7768;}
	.st10{fill:none;stroke:#000000;stroke-width:1.1107;}
	.st11{fill:none;stroke:#000000;stroke-width:2.5905;}
</style>
<g>
	<path class="st0" d="M21.1,5.8c0,0-16.7,0-16.7,16.7v31.6c0,0,0,16.7,16.7,16.7h31.6c0,0,16.7,0,16.7-16.7V22.5
		c0,0,0-16.7-16.7-16.7H21.1L21.1,5.8z"/>
	<path class="st1" d="M21.1,5.8c0,0-16.7,0-16.7,16.7v31.6c0,0,0,16.7,16.7,16.7h31.6c0,0,16.7,0,16.7-16.7V22.5
		c0,0,0-16.7-16.7-16.7H21.1L21.1,5.8z"/>
	<path class="st2" d="M108.2,5.8c0,0-16.7,0-16.7,16.7v31.6c0,0,0,16.7,16.7,16.7h31.6c0,0,16.7,0,16.7-16.7V22.5
		c0,0,0-16.7-16.7-16.7H108.2L108.2,5.8z"/>
	<path class="st3" d="M108.2,5.8c0,0-16.7,0-16.7,16.7v31.6c0,0,0,16.7,16.7,16.7h31.6c0,0,16.7,0,16.7-16.7V22.5
		c0,0,0-16.7-16.7-16.7H108.2L108.2,5.8z"/>
	<path class="st4" d="M195.3,5.8c0,0-16.7,0-16.7,16.7v31.6c0,0,0,16.7,16.7,16.7h31.6c0,0,16.7,0,16.7-16.7V22.5
		c0,0,0-16.7-16.7-16.7H195.3L195.3,5.8z"/>
	<path class="st5" d="M195.3,5.8c0,0-16.7,0-16.7,16.7v31.6c0,0,0,16.7,16.7,16.7h31.6c0,0,16.7,0,16.7-16.7V22.5
		c0,0,0-16.7-16.7-16.7H195.3L195.3,5.8z"/>
	<path class="st6" d="M282.4,4.5c0,0-16.7,0-16.7,16.7v31.6c0,0,0,16.7,16.7,16.7H314c0,0,16.7,0,16.7-16.7V21.1
		c0,0,0-16.7-16.7-16.7H282.4L282.4,4.5z"/>
	<path class="st7" d="M282.4,4.5c0,0-16.7,0-16.7,16.7v31.6c0,0,0,16.7,16.7,16.7H314c0,0,16.7,0,16.7-16.7V21.1
		c0,0,0-16.7-16.7-16.7H282.4L282.4,4.5z"/>
	<path d="M288.6,29.5c-9.3,0-16.8,7.5-16.8,16.8c0,9.3,7.5,16.8,16.8,16.8s16.8-7.5,16.8-16.8C305.4,37.1,297.9,29.5,288.6,29.5
		L288.6,29.5L288.6,29.5z M288.6,60.9c-8,0-14.5-6.5-14.5-14.5c0-8,6.5-14.5,14.5-14.5c8,0,14.5,6.5,14.5,14.5
		C303.2,54.3,296.7,60.9,288.6,60.9L288.6,60.9L288.6,60.9z"/>
	<path d="M288.6,35.8c-0.6,0-1.1,0.5-1.1,1.1c0,0.6,0.5,1.1,1.1,1.1c4.6,0,8.3,3.7,8.3,8.3c0,0.6,0.5,1.1,1.1,1.1
		c0.6,0,1.1-0.5,1.1-1.1C299.2,40.5,294.5,35.8,288.6,35.8L288.6,35.8L288.6,35.8z"/>
	<path d="M316.7,20.1c-5.4,0-9.8,4.4-9.8,9.8c0,5.4,4.4,9.8,9.8,9.8c5.4,0,9.8-4.4,9.8-9.8C326.5,24.5,322.1,20.1,316.7,20.1
		L316.7,20.1L316.7,20.1z M316.7,37.4c-4.1,0-7.5-3.4-7.5-7.5c0-4.1,3.4-7.5,7.5-7.5c4.1,0,7.5,3.4,7.5,7.5
		C324.2,34,320.9,37.4,316.7,37.4L316.7,37.4L316.7,37.4z"/>
	<path d="M317.3,33.4c-2.2,0-4-1.8-4-4.1c0-0.6-0.5-1.1-1.1-1.1s-1.1,0.5-1.1,1.1c0,3.5,2.8,6.3,6.3,6.3c0.6,0,1.1-0.5,1.1-1.1
		C318.4,33.9,317.9,33.4,317.3,33.4L317.3,33.4L317.3,33.4z"/>
	<path d="M290.4,24.1c3.7,0,6.7-3,6.7-6.7c0-3.7-3-6.7-6.7-6.7c-3.7,0-6.7,3-6.7,6.7C283.7,21.1,286.7,24.1,290.4,24.1L290.4,24.1
		L290.4,24.1z M290.4,13c2.4,0,4.4,2,4.4,4.4c0,2.4-2,4.4-4.4,4.4c-2.4,0-4.4-2-4.4-4.4C286,15,288,13,290.4,13L290.4,13L290.4,13z"
		/>
	<g>
		<defs>
			<polygon id="SVGID_1_" points="182.7,64.4 239.4,64.4 239.4,14.3 182.7,14.3 182.7,64.4 			"/>
		</defs>
		<clipPath id="SVGID_2_">
			<use xlink:href="#SVGID_1_"  style="overflow:visible;"/>
		</clipPath>
		<path class="st8" d="M237.6,50.1l-24.8-18.5v-3.9c3-0.7,5.2-3.5,5.2-6.7c0-3.8-3.1-6.9-6.9-6.9c-3.8,0-6.9,3.1-6.9,6.9
			c0,0.9,0.7,1.7,1.7,1.7c0.9,0,1.7-0.7,1.7-1.7c0-2,1.6-3.6,3.6-3.6c2,0,3.6,1.6,3.6,3.6c0,2-1.6,3.6-3.6,3.6
			c-0.9,0-1.7,0.7-1.7,1.7v5.3l-24.8,18.5c-1.6,1.2-2.2,3.2-1.6,5.1c0.6,1.9,2.3,3.1,4.3,3.1h6.6c0.8,3.4,3.8,6,7.5,6h19.4
			c3.7,0,6.7-2.6,7.5-6h6.6c2,0,3.7-1.2,4.3-3.1C239.8,53.3,239.2,51.3,237.6,50.1L237.6,50.1L237.6,50.1z M220.8,61.1h-19.4
			c-2.4,0-4.4-2-4.4-4.4c0-2.4,2-4.4,4.4-4.4h19.4c2.4,0,4.4,2,4.4,4.4C225.2,59.1,223.2,61.1,220.8,61.1L220.8,61.1L220.8,61.1z
			 M236,54.2c-0.1,0.2-0.3,0.8-1.2,0.8h-6.6c-0.8-3.4-3.8-6-7.5-6h-19.4c-3.7,0-6.7,2.6-7.5,6h-6.6c-0.8,0-1.1-0.6-1.2-0.8
			c-0.1-0.2-0.2-0.9,0.4-1.4l24.5-18.2l24.5,18.2C236.3,53.3,236.1,54,236,54.2L236,54.2L236,54.2z"/>
	</g>
	<path d="M11.7,38.9c0,13.9,11.3,25.2,25.2,25.2c13.9,0,25.2-11.3,25.2-25.2c0-13.9-11.3-25.2-25.2-25.2C23,13.7,11.7,25,11.7,38.9
		L11.7,38.9L11.7,38.9z M58.5,38.9c0,11.9-9.7,21.6-21.6,21.6c-11.9,0-21.6-9.7-21.6-21.6c0-11.9,9.7-21.6,21.6-21.6
		C48.8,17.3,58.5,27,58.5,38.9L58.5,38.9L58.5,38.9z"/>
	<path d="M30.9,22.6C29.3,23.2,32,22.2,30.9,22.6c-6.6,2.4-11.3,9-11.4,16.1C19.4,50,30.5,58.5,41.4,55.6c6.9-1.9,12.1-8,12.7-15.1
		c0.3-3.6-0.5-7.3-2.4-10.4C47.5,23,38.7,19.8,30.9,22.6L30.9,22.6L30.9,22.6z M23.2,38.9c0-5.1,2.9-9.8,7.3-12.1
		c0.9,3.1,1.3,6.2,0.8,9.4c-0.1,0.8-0.3,1.6-0.5,2.4c-0.2,0.8-0.3,1.6-0.4,2.4c-0.2,1.6-0.2,3.1-0.2,4.7c0,1.8,0.1,3.5,0.1,5.3
		C26,48.6,23.2,44,23.2,38.9L23.2,38.9L23.2,38.9z M50.6,38.9c0,3.1-1.1,6.1-3,8.5c-1.9,2.4-4.6,4.1-7.5,4.8c-2,0.5-4.1,0.5-6.1,0.1
		c0-1.7-0.1-3.3-0.1-5c-0.1-1.9-0.1-3.7,0.1-5.6c0.1-0.9,0.2-1.9,0.4-2.8c0.2-0.9,0.4-1.7,0.5-2.6c0.2-1.7,0.2-3.4,0.1-5.1
		c-0.2-1.9-0.6-3.8-1.1-5.7c3.3-0.8,6.9-0.2,9.9,1.5c2.6,1.5,4.7,3.9,5.8,6.7C50.2,35.4,50.6,37.1,50.6,38.9L50.6,38.9L50.6,38.9z"
		/>
	<path d="M44,46.7c0.4,0,0.8-0.1,1.1-0.4c2.2-1.8,3.5-4.5,3.5-7.4c0-2.4-0.9-4.7-2.5-6.4c-0.7-0.7-1.8-0.8-2.5-0.1
		c-0.7,0.7-0.8,1.8-0.1,2.5c1,1.1,1.6,2.5,1.6,4c0,1.8-0.8,3.5-2.2,4.6c-0.8,0.6-0.9,1.8-0.3,2.5C42.9,46.5,43.4,46.7,44,46.7
		L44,46.7L44,46.7z"/>
	<path d="M38,29.8c0.3,0.7,1,1.1,1.7,1.1c0.2,0,0.5,0,0.7-0.1c0.9-0.4,1.4-1.4,1-2.3l0-0.1c-0.4-0.9-1.4-1.4-2.3-1
		C38.1,27.8,37.6,28.9,38,29.8L38,29.8L38,29.8z"/>
	<path class="st9" d="M139,13.9c-1.9-0.8-4-1.2-6.2-1.2c-9.3,0-16.8,7.5-16.8,16.8c0,2.2,0.4,4.3,1.2,6.2l-16.8,16.5
		c0,0-4.6,4.5-0.1,9.1l0.6,0.6c0,0,4.5,4.6,9.1,0.1l17-16.7c1.8,0.7,3.7,1,5.8,1c3.8,0,7.3-1.3,10.1-3.4
		c-1.9-1.8-13.5-13.3-14.7-14.5c-1.4-1.4,0-3.7,0-3.7L139,13.9L139,13.9z M149.6,29.5c0-2.1-0.4-4.1-1.1-6l-9.3,9.5l6.9,6.8
		C148.3,37,149.6,33.4,149.6,29.5L149.6,29.5z"/>
	<path class="st10" d="M121.9,30.8L121.9,30.8l0.1,1.9l0,0l5-0.4l0,0l-0.1-1.9l0,0L121.9,30.8L121.9,30.8z M124.6,34.3L124.6,34.3
		l0.1,1.9l0,0l5-0.4l0,0l-0.1-1.9l0,0L124.6,34.3L124.6,34.3z M128.3,37.5L128.3,37.5l0.1,1.9l0,0l5-0.4l0,0l-0.1-1.9l0,0
		L128.3,37.5L128.3,37.5z"/>
	<path class="st11" d="M105.2,59.8c1.4,0,2.5-1.1,2.5-2.5c0-1.4-1.1-2.5-2.5-2.5c-1.4,0-2.5,1.1-2.5,2.5
		C102.7,58.7,103.9,59.8,105.2,59.8L105.2,59.8z"/>
</g>
</svg>
