<?xml version="1.0" encoding="utf-8"?>
<!-- Generator: Adobe Illustrator 23.0.3, SVG Export Plug-In . SVG Version: 6.00 Build 0)  -->
<svg version="1.1" id="Capa_1" xmlns="http://www.w3.org/2000/svg" xmlns:xlink="http://www.w3.org/1999/xlink" x="0px" y="0px"
	 viewBox="0 0 567.3 305.9" style="enable-background:new 0 0 567.3 305.9;" xml:space="preserve">
<style type="text/css">
	.st0{fill:none;stroke:#000000;stroke-width:4.8873;stroke-miterlimit:10.4892;}
	.st1{fill:#96B734;}
	.st2{fill:none;stroke:#96B734;stroke-width:0.4442;stroke-miterlimit:5.7207;}
	.st3{fill:none;stroke:#96B734;stroke-width:1.3884;}
	.st4{fill:#ABC465;}
	.st5{fill:none;stroke:#ABC465;stroke-width:1.3884;}
	.st6{fill:#C1D38A;}
	.st7{fill:none;stroke:#C1D38A;stroke-width:1.3884;}
	.st8{fill:#CCDB9D;}
	.st9{fill:none;stroke:#CCDB9D;stroke-width:1.3884;}
	.st10{clip-path:url(#SVGID_2_);}
	.st11{fill:none;stroke:#000000;stroke-width:2.7768;}
	.st12{fill:none;stroke:#000000;stroke-width:1.1107;}
	.st13{fill:none;stroke:#000000;stroke-width:2.5905;}
</style>
<g>
	<path d="M23.8,10.3V205h10.9V10.3H23.8L23.8,10.3z M93.3,99.9c7.3-7.1,16-10.6,26-10.6c10.1,0,18.8,3.6,26.1,10.8
		c7.3,7.2,11,15.8,11,26V205h10.9V125c-0.2-13.5-4.8-24.6-13.6-33.5c-8.8-8.8-20.3-13.3-34.4-13.3c-13.2,0-24.8,4.9-34.8,14.8v-7.7
		H73.6V205h10.9v-92.8C86.4,107.9,89.4,103.8,93.3,99.9L93.3,99.9L93.3,99.9z M196.6,85.5v10.9h24.3V205h10.9V96.5h24.3V85.5h-24.3
		V34.7h-10.9v50.8H196.6L196.6,85.5z M386,104.7l8.3-8.3c-0.7-0.7-1.3-1.5-2.1-2.2c-1.9-1.9-3.9-3.7-5.8-5.4
		c-11.8-9.5-25.7-14.2-41.5-14.2c-18.4,0-34.1,6.5-47.2,19.6c-13.1,13.1-19.6,28.8-19.6,47.2c0,18.5,6.5,34.3,19.6,47.3
		c13.1,13.1,28.8,19.6,47.2,19.6c18.5,0,34.3-6.5,47.3-19.6c2.7-2.7,5.1-5.5,7.2-8.4l-11.6-4.1c-1.2,1.5-2.5,2.9-3.9,4.3
		c-10.8,10.8-23.8,16.2-39,16.2c-14.2,0-26.4-4.7-36.7-14.1L386,104.7L386,104.7z M300.7,174.5c-7.3-9.5-10.9-20.5-10.9-33.1
		c0-15.2,5.4-28.2,16.2-39c10.8-10.7,23.8-16.1,38.9-16.1c12.6,0,23.6,3.6,33.1,10.9L300.7,174.5L300.7,174.5z M527.1,180.5
		c-10.8,10.8-23.8,16.2-39,16.2c-15.2,0-28.1-5.4-38.9-16.2c-10.8-10.8-16.2-23.8-16.2-39c0-15.2,5.4-28.2,16.2-39
		c10.8-10.7,23.8-16.1,38.9-16.1c15.2,0,28.3,5.4,39,16.1c1.4,1.5,2.7,2.9,3.9,4.4l11.6-4.3c-2.1-2.8-4.5-5.6-7.2-8.3
		c-13.1-13.1-28.8-19.6-47.3-19.6c-18.4,0-34.1,6.5-47.2,19.6c-13.1,13.1-19.6,28.8-19.6,47.2c0,18.5,6.5,34.3,19.6,47.3
		c13.1,13.1,28.8,19.6,47.2,19.6c18.5,0,34.3-6.5,47.3-19.6c2.7-2.7,5.1-5.5,7.2-8.4l-11.6-4.1C529.8,177.7,528.5,179.1,527.1,180.5
		L527.1,180.5L527.1,180.5z"/>
	<path class="st0" d="M23.8,10.3V205h10.9V10.3H23.8L23.8,10.3z M93.3,99.9c7.3-7.1,16-10.6,26-10.6c10.1,0,18.8,3.6,26.1,10.8
		c7.3,7.2,11,15.8,11,26V205h10.9V125c-0.2-13.5-4.8-24.6-13.6-33.5c-8.8-8.8-20.3-13.3-34.4-13.3c-13.2,0-24.8,4.9-34.8,14.8v-7.7
		H73.6V205h10.9v-92.8C86.4,107.9,89.4,103.8,93.3,99.9L93.3,99.9L93.3,99.9z M196.6,85.5v10.9h24.3V205h10.9V96.5h24.3V85.5h-24.3
		V34.7h-10.9v50.8H196.6L196.6,85.5z M386,104.7l8.3-8.3c-0.7-0.7-1.3-1.5-2.1-2.2c-1.9-1.9-3.9-3.7-5.8-5.4
		c-11.8-9.5-25.7-14.2-41.5-14.2c-18.4,0-34.1,6.5-47.2,19.6c-13.1,13.1-19.6,28.8-19.6,47.2c0,18.5,6.5,34.3,19.6,47.3
		c13.1,13.1,28.8,19.6,47.2,19.6c18.5,0,34.3-6.5,47.3-19.6c2.7-2.7,5.1-5.5,7.2-8.4l-11.6-4.1c-1.2,1.5-2.5,2.9-3.9,4.3
		c-10.8,10.8-23.8,16.2-39,16.2c-14.2,0-26.4-4.7-36.7-14.1L386,104.7L386,104.7z M300.7,174.5c-7.3-9.5-10.9-20.5-10.9-33.1
		c0-15.2,5.4-28.2,16.2-39c10.8-10.7,23.8-16.1,38.9-16.1c12.6,0,23.6,3.6,33.1,10.9L300.7,174.5L300.7,174.5z M527.1,180.5
		c-10.8,10.8-23.8,16.2-39,16.2c-15.2,0-28.1-5.4-38.9-16.2c-10.8-10.8-16.2-23.8-16.2-39c0-15.2,5.4-28.2,16.2-39
		c10.8-10.7,23.8-16.1,38.9-16.1c15.2,0,28.3,5.4,39,16.1c1.4,1.5,2.7,2.9,3.9,4.4l11.6-4.3c-2.1-2.8-4.5-5.6-7.2-8.3
		c-13.1-13.1-28.8-19.6-47.3-19.6c-18.4,0-34.1,6.5-47.2,19.6c-13.1,13.1-19.6,28.8-19.6,47.2c0,18.5,6.5,34.3,19.6,47.3
		c13.1,13.1,28.8,19.6,47.2,19.6c18.5,0,34.3-6.5,47.3-19.6c2.7-2.7,5.1-5.5,7.2-8.4l-11.6-4.1C529.8,177.7,528.5,179.1,527.1,180.5
		L527.1,180.5L527.1,180.5z"/>
	<path class="st1" d="M388.6,268.4c2.6,2.6,3.9,5.8,3.9,9.4c0,3.8-1.3,6.9-3.9,9.6c-2.6,2.6-5.8,3.9-9.5,3.9c-3.7,0-6.8-1.3-9.5-3.9
		c-2.6-2.6-3.9-5.9-3.9-9.8l-5.9,1.5c0,4.5,1.9,8.7,5.6,12.4c3.8,3.8,8.3,5.7,13.7,5.7c5.4,0,9.9-1.9,13.7-5.7
		c3.8-3.8,5.6-8.4,5.6-13.8c0-5.3-1.9-9.8-5.6-13.6c-2.4-2.4-6.4-5.1-12.1-8.2c-3.6-2.3-5.9-3.9-7-5c-1.9-1.9-2.9-4.2-2.9-6.8
		c0-2.7,1-5,2.9-6.9c1.9-1.9,4.2-2.8,6.8-2.8c2.7,0,4.9,0.8,6.5,2.5c1.7,1.7,2.7,4.2,3.2,7.6l5.2-2.1v-0.3c0-3.5-1.4-6.7-4.1-9.5
		c-2.8-2.8-6.4-4.2-10.7-4.2c-4.3,0-8,1.5-11,4.6c-3.1,3.1-4.6,6.8-4.6,11.1c0,4.3,1.5,8,4.6,11c1.9,1.9,5.5,4.3,10.5,7
		C384.4,265,387.2,267,388.6,268.4L388.6,268.4L388.6,268.4z M460.9,289.4c4.8-4.8,7.3-10.9,7.4-18.2v-40.6h-6v40.1
		c0,5.5-2,10.3-6,14.2c-4,3.9-8.7,5.9-14.2,5.9c-5.9,0-10.8-2-14.8-5.9c-4-3.9-6-8.6-6-14.1v-40.1h-6v40.6
		c0.1,7.3,2.6,13.4,7.4,18.2c4.8,4.8,11.3,7.2,19.4,7.2C449.9,296.6,456.1,294.2,460.9,289.4L460.9,289.4L460.9,289.4z M488.3,295.7
		h6v-50.8c0.3-3.3,1.6-6,3.9-8.3c2.6-2.6,5.7-3.9,9.4-3.9c3.7,0,6.8,1.3,9.5,3.9c2.4,2.4,3.7,5.4,3.9,8.8h-0.1v50.3h6v-49.4
		c0-3.9,1.3-7.1,3.9-9.8c2.6-2.6,5.8-3.9,9.5-3.9c3.7,0,6.8,1.3,9.5,3.9c2.4,2.4,3.7,5.4,3.9,8.8h-0.1v50.3h6v-50.3
		c-0.2-5.1-2.1-9.4-5.6-13.1c-3.8-3.8-8.3-5.6-13.7-5.6c-5.4,0-9.9,1.9-13.7,5.6c-1.1,1.1-2,2.2-2.7,3.3c-0.8-1.2-1.6-2.3-2.7-3.3
		c-3.8-3.8-8.3-5.6-13.7-5.6c-5.2,0-9.6,1.8-13.3,5.4v-1.5h-6V295.7L488.3,295.7z"/>
	<path class="st2" d="M388.6,268.4c2.6,2.6,3.9,5.8,3.9,9.4c0,3.8-1.3,6.9-3.9,9.6c-2.6,2.6-5.8,3.9-9.5,3.9c-3.7,0-6.8-1.3-9.5-3.9
		c-2.6-2.6-3.9-5.9-3.9-9.8l-5.9,1.5c0,4.5,1.9,8.7,5.6,12.4c3.8,3.8,8.3,5.7,13.7,5.7c5.4,0,9.9-1.9,13.7-5.7
		c3.8-3.8,5.6-8.4,5.6-13.8c0-5.3-1.9-9.8-5.6-13.6c-2.4-2.4-6.4-5.1-12.1-8.2c-3.6-2.3-5.9-3.9-7-5c-1.9-1.9-2.9-4.2-2.9-6.8
		c0-2.7,1-5,2.9-6.9c1.9-1.9,4.2-2.8,6.8-2.8c2.7,0,4.9,0.8,6.5,2.5c1.7,1.7,2.7,4.2,3.2,7.6l5.2-2.1v-0.3c0-3.5-1.4-6.7-4.1-9.5
		c-2.8-2.8-6.4-4.2-10.7-4.2c-4.3,0-8,1.5-11,4.6c-3.1,3.1-4.6,6.8-4.6,11.1c0,4.3,1.5,8,4.6,11c1.9,1.9,5.5,4.3,10.5,7
		C384.4,265,387.2,267,388.6,268.4L388.6,268.4L388.6,268.4z M460.9,289.4c4.8-4.8,7.3-10.9,7.4-18.2v-40.6h-6v40.1
		c0,5.5-2,10.3-6,14.2c-4,3.9-8.7,5.9-14.2,5.9c-5.9,0-10.8-2-14.8-5.9c-4-3.9-6-8.6-6-14.1v-40.1h-6v40.6
		c0.1,7.3,2.6,13.4,7.4,18.2c4.8,4.8,11.3,7.2,19.4,7.2C449.9,296.6,456.1,294.2,460.9,289.4L460.9,289.4L460.9,289.4z M488.3,295.7
		h6v-50.8c0.3-3.3,1.6-6,3.9-8.3c2.6-2.6,5.7-3.9,9.4-3.9c3.7,0,6.8,1.3,9.5,3.9c2.4,2.4,3.7,5.4,3.9,8.8h-0.1v50.3h6v-49.4
		c0-3.9,1.3-7.1,3.9-9.8c2.6-2.6,5.8-3.9,9.5-3.9c3.7,0,6.8,1.3,9.5,3.9c2.4,2.4,3.7,5.4,3.9,8.8h-0.1v50.3h6v-50.3
		c-0.2-5.1-2.1-9.4-5.6-13.1c-3.8-3.8-8.3-5.6-13.7-5.6c-5.4,0-9.9,1.9-13.7,5.6c-1.1,1.1-2,2.2-2.7,3.3c-0.8-1.2-1.6-2.3-2.7-3.3
		c-3.8-3.8-8.3-5.6-13.7-5.6c-5.2,0-9.6,1.8-13.3,5.4v-1.5h-6V295.7L488.3,295.7z"/>
	<path class="st1" d="M24.4,234.8c0,0-16.7,0-16.7,16.7v31.6c0,0,0,16.7,16.7,16.7H56c0,0,16.7,0,16.7-16.7v-31.6
		c0,0,0-16.7-16.7-16.7H24.4L24.4,234.8z"/>
	<path class="st3" d="M24.4,234.8c0,0-16.7,0-16.7,16.7v31.6c0,0,0,16.7,16.7,16.7H56c0,0,16.7,0,16.7-16.7v-31.6
		c0,0,0-16.7-16.7-16.7H24.4L24.4,234.8z"/>
	<path class="st4" d="M111.5,234.8c0,0-16.7,0-16.7,16.7v31.6c0,0,0,16.7,16.7,16.7h31.6c0,0,16.7,0,16.7-16.7v-31.6
		c0,0,0-16.7-16.7-16.7H111.5L111.5,234.8z"/>
	<path class="st5" d="M111.5,234.8c0,0-16.7,0-16.7,16.7v31.6c0,0,0,16.7,16.7,16.7h31.6c0,0,16.7,0,16.7-16.7v-31.6
		c0,0,0-16.7-16.7-16.7H111.5L111.5,234.8z"/>
	<path class="st6" d="M198.6,234.8c0,0-16.7,0-16.7,16.7v31.6c0,0,0,16.7,16.7,16.7h31.6c0,0,16.7,0,16.7-16.7v-31.6
		c0,0,0-16.7-16.7-16.7H198.6L198.6,234.8z"/>
	<path class="st7" d="M198.6,234.8c0,0-16.7,0-16.7,16.7v31.6c0,0,0,16.7,16.7,16.7h31.6c0,0,16.7,0,16.7-16.7v-31.6
		c0,0,0-16.7-16.7-16.7H198.6L198.6,234.8z"/>
	<path class="st8" d="M285.7,233.4c0,0-16.7,0-16.7,16.7v31.6c0,0,0,16.7,16.7,16.7h31.6c0,0,16.7,0,16.7-16.7v-31.6
		c0,0,0-16.7-16.7-16.7H285.7L285.7,233.4z"/>
	<path class="st9" d="M285.7,233.4c0,0-16.7,0-16.7,16.7v31.6c0,0,0,16.7,16.7,16.7h31.6c0,0,16.7,0,16.7-16.7v-31.6
		c0,0,0-16.7-16.7-16.7H285.7L285.7,233.4z"/>
	<path d="M291.9,258.5c-9.3,0-16.8,7.5-16.8,16.8c0,9.3,7.5,16.8,16.8,16.8c9.3,0,16.8-7.5,16.8-16.8
		C308.7,266,301.2,258.5,291.9,258.5L291.9,258.5L291.9,258.5z M291.9,289.8c-8,0-14.5-6.5-14.5-14.5c0-8,6.5-14.5,14.5-14.5
		c8,0,14.5,6.5,14.5,14.5C306.5,283.3,300,289.8,291.9,289.8L291.9,289.8L291.9,289.8z"/>
	<path d="M291.9,264.8c-0.6,0-1.1,0.5-1.1,1.1c0,0.6,0.5,1.1,1.1,1.1c4.6,0,8.3,3.7,8.3,8.3c0,0.6,0.5,1.1,1.1,1.1
		c0.6,0,1.1-0.5,1.1-1.1C302.5,269.5,297.8,264.8,291.9,264.8L291.9,264.8L291.9,264.8z"/>
	<path d="M320,249.1c-5.4,0-9.8,4.4-9.8,9.8c0,5.4,4.4,9.8,9.8,9.8c5.4,0,9.8-4.4,9.8-9.8C329.8,253.5,325.4,249.1,320,249.1
		L320,249.1L320,249.1z M320,266.3c-4.1,0-7.5-3.4-7.5-7.5c0-4.1,3.4-7.5,7.5-7.5c4.1,0,7.5,3.4,7.5,7.5
		C327.5,263,324.2,266.3,320,266.3L320,266.3L320,266.3z"/>
	<path d="M320.6,262.3c-2.2,0-4.1-1.8-4.1-4.1c0-0.6-0.5-1.1-1.1-1.1c-0.6,0-1.1,0.5-1.1,1.1c0,3.5,2.8,6.3,6.3,6.3
		c0.6,0,1.1-0.5,1.1-1.1C321.7,262.8,321.2,262.3,320.6,262.3L320.6,262.3L320.6,262.3z"/>
	<path d="M293.7,253.1c3.7,0,6.7-3,6.7-6.7c0-3.7-3-6.7-6.7-6.7c-3.7,0-6.7,3-6.7,6.7C287,250.1,290,253.1,293.7,253.1L293.7,253.1
		L293.7,253.1z M293.7,242c2.4,0,4.4,2,4.4,4.4c0,2.4-2,4.4-4.4,4.4c-2.4,0-4.4-2-4.4-4.4C289.3,244,291.3,242,293.7,242L293.7,242
		L293.7,242z"/>
	<g>
		<defs>
			<polygon id="SVGID_1_" points="186,293.4 242.7,293.4 242.7,243.2 186,243.2 186,293.4 			"/>
		</defs>
		<clipPath id="SVGID_2_">
			<use xlink:href="#SVGID_1_"  style="overflow:visible;"/>
		</clipPath>
		<path class="st10" d="M240.9,279.1L216,260.7v-3.9c3-0.7,5.2-3.5,5.2-6.7c0-3.8-3.1-6.9-6.9-6.9c-3.8,0-6.9,3.1-6.9,6.9
			c0,0.9,0.7,1.7,1.7,1.7c0.9,0,1.7-0.7,1.7-1.7c0-2,1.6-3.6,3.6-3.6c2,0,3.6,1.6,3.6,3.6c0,2-1.6,3.6-3.6,3.6
			c-0.9,0-1.7,0.7-1.7,1.7v5.3l-24.8,18.5c-1.6,1.2-2.2,3.2-1.6,5.1c0.6,1.9,2.3,3.1,4.3,3.1h6.6c0.8,3.4,3.8,6,7.5,6h19.4
			c3.7,0,6.7-2.6,7.5-6h6.6c2,0,3.7-1.2,4.3-3.1C243.1,282.3,242.5,280.3,240.9,279.1L240.9,279.1L240.9,279.1z M224.1,290.1h-19.4
			c-2.4,0-4.4-2-4.4-4.4c0-2.4,2-4.4,4.4-4.4h19.4c2.4,0,4.4,2,4.4,4.4C228.4,288.1,226.5,290.1,224.1,290.1L224.1,290.1
			L224.1,290.1z M239.3,283.2c-0.1,0.2-0.3,0.8-1.2,0.8h-6.6c-0.8-3.4-3.8-6-7.5-6h-19.4c-3.7,0-6.7,2.6-7.5,6h-6.6
			c-0.8,0-1.1-0.6-1.2-0.8c-0.1-0.2-0.2-0.9,0.4-1.4l24.5-18.2l24.5,18.2C239.6,282.3,239.4,283,239.3,283.2L239.3,283.2
			L239.3,283.2z"/>
	</g>
	<path d="M15,267.9c0,13.9,11.3,25.2,25.2,25.2c13.9,0,25.2-11.3,25.2-25.2c0-13.9-11.3-25.2-25.2-25.2C26.3,242.7,15,254,15,267.9
		L15,267.9L15,267.9z M61.8,267.9c0,11.9-9.7,21.6-21.6,21.6c-11.9,0-21.6-9.7-21.6-21.6c0-11.9,9.7-21.6,21.6-21.6
		C52.1,246.3,61.8,256,61.8,267.9L61.8,267.9L61.8,267.9z"/>
	<path d="M34.2,251.6C32.6,252.2,35.3,251.2,34.2,251.6c-6.6,2.4-11.3,9-11.4,16.1c-0.1,11.3,10.9,19.8,21.8,16.9
		c6.9-1.9,12.1-8,12.7-15.1c0.3-3.6-0.5-7.3-2.4-10.4C50.8,252,42,248.8,34.2,251.6L34.2,251.6L34.2,251.6z M26.5,267.9
		c0-5.1,2.9-9.8,7.3-12.1c0.9,3.1,1.3,6.2,0.8,9.4c-0.1,0.8-0.3,1.6-0.5,2.4c-0.2,0.8-0.3,1.6-0.4,2.4c-0.2,1.6-0.2,3.1-0.2,4.7
		c0,1.8,0.1,3.5,0.1,5.3C29.3,277.6,26.5,273,26.5,267.9L26.5,267.9L26.5,267.9z M53.9,267.9c0,3.1-1.1,6.1-3,8.5
		c-1.9,2.4-4.6,4.1-7.5,4.8c-2,0.5-4.1,0.5-6.1,0.1c0-1.7-0.1-3.3-0.1-5c-0.1-1.9-0.1-3.7,0.1-5.6c0.1-0.9,0.2-1.9,0.4-2.8
		c0.2-0.9,0.4-1.7,0.5-2.6c0.2-1.7,0.2-3.4,0.1-5.1c-0.2-1.9-0.6-3.8-1.1-5.7c3.3-0.8,6.9-0.2,9.9,1.5c2.6,1.5,4.7,3.9,5.8,6.7
		C53.5,264.4,53.9,266.1,53.9,267.9L53.9,267.9L53.9,267.9z"/>
	<path d="M47.3,275.7c0.4,0,0.8-0.1,1.1-0.4c2.2-1.8,3.5-4.5,3.5-7.4c0-2.4-0.9-4.7-2.5-6.4c-0.7-0.7-1.8-0.8-2.5-0.1
		c-0.7,0.7-0.8,1.8-0.1,2.5c1,1.1,1.6,2.5,1.6,4c0,1.8-0.8,3.5-2.2,4.6c-0.8,0.6-0.9,1.8-0.3,2.5C46.2,275.4,46.7,275.7,47.3,275.7
		L47.3,275.7L47.3,275.7z"/>
	<path d="M41.3,258.8c0.3,0.7,1,1.1,1.7,1.1c0.2,0,0.5,0,0.7-0.1c0.9-0.4,1.4-1.4,1-2.3l0-0.1c-0.4-0.9-1.4-1.4-2.3-1
		C41.4,256.8,40.9,257.8,41.3,258.8L41.3,258.8L41.3,258.8z"/>
	<path class="st11" d="M142.3,242.8c-1.9-0.8-4-1.2-6.2-1.2c-9.3,0-16.8,7.5-16.8,16.8c0,2.2,0.4,4.3,1.2,6.2l-16.8,16.5
		c0,0-4.6,4.5-0.1,9.1l0.6,0.6c0,0,4.5,4.6,9.1,0.1l17-16.7c1.8,0.7,3.7,1,5.8,1c3.8,0,7.3-1.3,10.1-3.4
		c-1.9-1.8-13.5-13.3-14.7-14.5c-1.4-1.4,0-3.7,0-3.7L142.3,242.8L142.3,242.8z M152.9,258.5c0-2.1-0.4-4.1-1.1-6l-9.3,9.5l6.9,6.8
		C151.6,265.9,152.9,262.3,152.9,258.5L152.9,258.5z"/>
	<path class="st12" d="M125.2,259.8L125.2,259.8l0.1,1.9l0,0l5-0.4l0,0l-0.1-1.9l0,0L125.2,259.8L125.2,259.8z M127.9,263.2
		L127.9,263.2l0.1,1.9l0,0l5-0.4l0,0l-0.1-1.9l0,0L127.9,263.2L127.9,263.2z M131.6,266.5L131.6,266.5l0.1,1.9l0,0l5-0.4l0,0
		l-0.1-1.9l0,0L131.6,266.5L131.6,266.5z"/>
	<path class="st13" d="M108.5,288.8c1.4,0,2.5-1.1,2.5-2.5c0-1.4-1.1-2.5-2.5-2.5c-1.4,0-2.5,1.1-2.5,2.5
		C106,287.7,107.2,288.8,108.5,288.8L108.5,288.8z"/>
</g>
</svg>
